{
  "accessors": [
    {
      "bufferView": 2,
      "componentType": 5126,
      "count": 65532,
      "max": [
        1.0309059619903564,
        3.000164031982422,
        -0.20506499707698822
      ],
      "min": [
        -1.2354240417480469,
        -3.0004100799560547,
        -2.748060941696167
      ],
      "type": "VEC3"
    },
    {
      "bufferView": 2,
      "byteOffset": 786384,
      "componentType": 5126,
      "count": 65532,
      "max": [
        1.0,
        1.0,
        1.0
      ],
      "min": [
        -1.0,
        -1.0,
        -1.0
      ],
      "type": "VEC3"
    },
    {
      "bufferView": 1,
      "componentType": 5126,
      "count": 65532,
      "max": [
        0.9934070110321045,
        0.9870520234107971
      ],
      "min": [
        0.012792999856173992,
        0.006994009017944336
      ],
      "type": "VEC2"
    },
    {
      "bufferView": 1,
      "byteOffset": 524256,
      "componentType": 5126,
      "count": 65532,
      "max": [
        0.9934070110321045,
        0.9870520234107971
      ],
      "min": [
        0.012792999856173992,
        0.006994009017944336
      ],
      "type": "VEC2"
    },
    {
      "bufferView": 1,
      "byteOffset": 1048512,
      "componentType": 5126,
      "count": 65532,
      "max": [
        0.9934070110321045,
        0.9870520234107971
      ],
      "min": [
        0.012792999856173992,
        0.006994009017944336
      ],
      "type": "VEC2"
    },
    {
      "bufferView": 0,
      "componentType": 5125,
      "count": 273711,
      "type": "SCALAR"
    },
    {
      "bufferView": 2,
      "byteOffset": 1572768,
      "componentType": 5126,
      "count": 13483,
      "max": [
        1.2354240417480469,
        2.901597023010254,
        -0.3530069887638092
      ],
      "min": [
        -1.0178190469741821,
        -2.9972920417785645,
        -2.8928658962249756
      ],
      "type": "VEC3"
    },
    {
      "bufferView": 2,
      "byteOffset": 1734564,
      "componentType": 5126,
      "count": 13483,
      "max": [
        1.0,
        0.9999494552612305,
        0.9999533891677856
      ],
      "min": [
        -1.0,
        -1.0,
        -0.9999947547912598
      ],
      "type": "VEC3"
    },
    {
      "bufferView": 1,
      "byteOffset": 1572768,
      "componentType": 5126,
      "count": 13483,
      "max": [
        0.917136013507843,
        0.986191987991333
      ],
      "min": [
        0.2517220079898834,
        0.17302900552749634
      ],
      "type": "VEC2"
    },
    {
      "bufferView": 1,
      "byteOffset": 1680632,
      "componentType": 5126,
      "count": 13483,
      "max": [
        0.917136013507843,
        0.986191987991333
      ],
      "min": [
        0.2517220079898834,
        0.17302900552749634
      ],
      "type": "VEC2"
    },
    {
      "bufferView": 1,
      "byteOffset": 1788496,
      "componentType": 5126,
      "count": 13483,
      "max": [
        0.917136013507843,
        0.986191987991333
      ],
      "min": [
        0.2517220079898834,
        0.17302900552749634
      ],
      "type": "VEC2"
    },
    {
      "bufferView": 0,
      "byteOffset": 1094844,
      "componentType": 5125,
      "count": 52125,
      "type": "SCALAR"
    },
    {
      "bufferView": 2,
      "byteOffset": 1896360,
      "componentType": 5126,
      "count": 30450,
      "max": [
        1.0170389413833618,
        2.90093994140625,
        -0.3477120101451874
      ],
      "min": [
        -1.0169850587844849,
        -2.963710069656372,
        -2.749166965484619
      ],
      "type": "VEC3"
    },
    {
      "bufferView": 2,
      "byteOffset": 2261760,
      "componentType": 5126,
      "count": 30450,
      "max": [
        1.0,
        1.0,
        0.9999864101409912
      ],
      "min": [
        -1.0,
        -1.0,
        -0.9999948740005493
      ],
      "type": "VEC3"
    },
    {
      "bufferView": 3,
      "componentType": 5126,
      "count": 30450,
      "max": [
        0.9999990463256836,
        0.9999973773956299,
        0.9999967813491821,
        1.0
      ],
      "min": [
        -1.0,
        -0.9999996423721313,
        -0.9999996423721313,
        -1.0
      ],
      "type": "VEC4"
    },
    {
      "bufferView": 1,
      "byteOffset": 1896360,
      "componentType": 5126,
      "count": 30450,
      "max": [
        0.9994140267372131,
        1.0
      ],
      "min": [
        0.0,
        0.0
      ],
      "type": "VEC2"
    },
    {
      "bufferView": 1,
      "byteOffset": 2139960,
      "componentType": 5126,
      "count": 30450,
      "max": [
        0.9994140267372131,
        1.0
      ],
      "min": [
        0.0,
        0.0
      ],
      "type": "VEC2"
    },
    {
      "bufferView": 1,
      "byteOffset": 2383560,
      "componentType": 5126,
      "count": 30450,
      "max": [
        0.9994140267372131,
        1.0
      ],
      "min": [
        0.0,
        0.0
      ],
      "type": "VEC2"
    },
    {
      "bufferView": 1,
      "byteOffset": 2627160,
      "componentType": 5126,
      "count": 30450,
      "max": [
        0.9994140267372131,
        1.0
      ],
      "min": [
        0.0,
        0.0
      ],
      "type": "VEC2"
    },
    {
      "bufferView": 0,
      "byteOffset": 1303344,
      "componentType": 5125,
      "count": 137034,
      "type": "SCALAR"
    },
    {
      "bufferView": 2,
      "byteOffset": 2627160,
      "componentType": 5126,
      "count": 65532,
      "max": [
        0.9748340249061584,
        2.1862680912017822,
        -0.12809300422668457
      ],
      "min": [
        -1.2244340181350708,
        -2.9565069675445557,
        -2.1100668907165527
      ],
      "type": "VEC3"
    },
    {
      "bufferView": 2,
      "byteOffset": 3413544,
      "componentType": 5126,
      "count": 65532,
      "max": [
        1.0,
        0.9999350309371948,
        0.9999604225158691
      ],
      "min": [
        -1.0,
        -0.999996542930603,
        -0.9999361634254456
      ],
      "type": "VEC3"
    },
    {
      "bufferView": 1,
      "byteOffset": 2870760,
      "componentType": 5126,
      "count": 65532,
      "max": [
        0.9921720027923584,
        0.9637839794158936
      ],
      "min": [
        0.028074000030755997,
        0.009474992752075195
      ],
      "type": "VEC2"
    },
    {
      "bufferView": 1,
      "byteOffset": 3395016,
      "componentType": 5126,
      "count": 65532,
      "max": [
        0.9921720027923584,
        0.9637839794158936
      ],
      "min": [
        0.028074000030755997,
        0.009474992752075195
      ],
      "type": "VEC2"
    },
    {
      "bufferView": 1,
      "byteOffset": 3919272,
      "componentType": 5126,
      "count": 65532,
      "max": [
        0.9921720027923584,
        0.9637839794158936
      ],
      "min": [
        0.028074000030755997,
        0.009474992752075195
      ],
      "type": "VEC2"
    },
    {
      "bufferView": 0,
      "byteOffset": 1851480,
      "componentType": 5125,
      "count": 281751,
      "type": "SCALAR"
    },
    {
      "bufferView": 2,
      "byteOffset": 4199928,
      "componentType": 5126,
      "count": 25901,
      "max": [
        1.232125997543335,
        2.952347993850708,
        -0.45372799038887024
      ],
      "min": [
        -1.232125997543335,
        -2.9608609676361084,
        -2.7418019771575928
      ],
      "type": "VEC3"
    },
    {
      "bufferView": 2,
      "byteOffset": 4510740,
      "componentType": 5126,
      "count": 25901,
      "max": [
        0.9999908208847046,
        0.9999563694000244,
        0.9999091029167175
      ],
      "min": [
        -0.9999808073043823,
        -0.9999874830245972,
        -0.9999806880950928
      ],
      "type": "VEC3"
    },
    {
      "bufferView": 1,
      "byteOffset": 4443528,
      "componentType": 5126,
      "count": 25901,
      "max": [
        0.8923299908638,
        0.981344997882843
      ],
      "min": [
        0.004860000219196081,
        0.12888401746749878
      ],
      "type": "VEC2"
    },
    {
      "bufferView": 1,
      "byteOffset": 4650736,
      "componentType": 5126,
      "count": 25901,
      "max": [
        0.8923299908638,
        0.981344997882843
      ],
      "min": [
        0.004860000219196081,
        0.12888401746749878
      ],
      "type": "VEC2"
    },
    {
      "bufferView": 1,
      "byteOffset": 4857944,
      "componentType": 5126,
      "count": 25901,
      "max": [
        0.8923299908638,
        0.981344997882843
      ],
      "min": [
        0.004860000219196081,
        0.12888401746749878
      ],
      "type": "VEC2"
    },
    {
      "bufferView": 0,
      "byteOffset": 2978484,
      "componentType": 5125,
      "count": 97893,
      "type": "SCALAR"
    },
    {
      "bufferView": 2,
      "byteOffset": 4821552,
      "componentType": 5126,
      "count": 36030,
      "max": [
        0.9890980124473572,
        2.946229934692383,
        -0.14403200149536133
      ],
      "min": [
        -0.9728490114212036,
        -2.9698851108551025,
        -2.7435810565948486
      ],
      "type": "VEC3"
    },
    {
      "bufferView": 2,
      "byteOffset": 5253912,
      "componentType": 5126,
      "count": 36030,
      "max": [
        1.0,
        0.9998192191123962,
        0.9999980926513672
      ],
      "min": [
        -1.0,
        -0.9999865293502808,
        -0.9999898672103882
      ],
      "type": "VEC3"
    },
    {
      "bufferView": 3,
      "byteOffset": 487200,
      "componentType": 5126,
      "count": 36030,
      "max": [
        1.0,
        0.9999977946281433,
        0.9999901056289673,
        1.0
      ],
      "min": [
        -1.0,
        -0.9999991655349731,
        -0.9999995827674866,
        -1.0
      ],
      "type": "VEC4"
    },
    {
      "bufferView": 1,
      "byteOffset": 5065152,
      "componentType": 5126,
      "count": 36030,
      "max": [
        0.9996780157089233,
        0.9974570274353027
      ],
      "min": [
        0.012261000461876392,
        0.027486979961395264
      ],
      "type": "VEC2"
    },
    {
      "bufferView": 1,
      "byteOffset": 5353392,
      "componentType": 5126,
      "count": 36030,
      "max": [
        0.9996780157089233,
        0.9974570274353027
      ],
      "min": [
        0.012261000461876392,
        0.027486979961395264
      ],
      "type": "VEC2"
    },
    {
      "bufferView": 1,
      "byteOffset": 5641632,
      "componentType": 5126,
      "count": 36030,
      "max": [
        0.9996780157089233,
        0.9974570274353027
      ],
      "min": [
        0.012261000461876392,
        0.027486979961395264
      ],
      "type": "VEC2"
    },
    {
      "bufferView": 1,
      "byteOffset": 5929872,
      "componentType": 5126,
      "count": 36030,
      "max": [
        0.9996780157089233,
        0.9974570274353027
      ],
      "min": [
        0.012261000461876392,
        0.027486979961395264
      ],
      "type": "VEC2"
    },
    {
      "bufferView": 0,
      "byteOffset": 3370056,
      "componentType": 5125,
      "count": 170898,
      "type": "SCALAR"
    },
    {
      "bufferView": 2,
      "byteOffset": 5686272,
      "componentType": 5126,
      "count": 21316,
      "max": [
        1.2431329488754272,
        2.9524919986724854,
        -0.4526340067386627
      ],
      "min": [
        -1.2431329488754272,
        -2.976030111312866,
        -2.7437949180603027
      ],
      "type": "VEC3"
    },
    {
      "bufferView": 2,
      "byteOffset": 5942064,
      "componentType": 5126,
      "count": 21316,
      "max": [
        0.9999556541442871,
        0.9998261332511902,
        1.0
      ],
      "min": [
        -0.9999547004699707,
        -0.9999762773513794,
        -1.0
      ],
      "type": "VEC3"
    },
    {
      "bufferView": 1,
      "byteOffset": 6218112,
      "componentType": 5126,
      "count": 21316,
      "max": [
        0.9785060286521912,
        0.9960219860076904
      ],
      "min": [
        0.009349999949336052,
        0.01230400800704956
      ],
      "type": "VEC2"
    },
    {
      "bufferView": 1,
      "byteOffset": 6388640,
      "componentType": 5126,
      "count": 21316,
      "max": [
        0.9785060286521912,
        0.9960219860076904
      ],
      "min": [
        0.009349999949336052,
        0.01230400800704956
      ],
      "type": "VEC2"
    },
    {
      "bufferView": 1,
      "byteOffset": 6559168,
      "componentType": 5126,
      "count": 21316,
      "max": [
        0.9785060286521912,
        0.9960219860076904
      ],
      "min": [
        0.009349999949336052,
        0.01230400800704956
      ],
      "type": "VEC2"
    },
    {
      "bufferView": 1,
      "byteOffset": 6729696,
      "componentType": 5126,
      "count": 21316,
      "max": [
        0.9785060286521912,
        0.9960219860076904
      ],
      "min": [
        0.009349999949336052,
        0.01230400800704956
      ],
      "type": "VEC2"
    },
    {
      "bufferView": 0,
      "byteOffset": 4053648,
      "componentType": 5125,
      "count": 96600,
      "type": "SCALAR"
    },
    {
      "bufferView": 2,
      "byteOffset": 6197856,
      "componentType": 5126,
      "count": 65532,
      "max": [
        0.9761120080947876,
        2.317763090133667,
        0.004941999912261963
      ],
      "min": [
        0.7567740082740784,
        -2.177639961242676,
        -0.7063440084457397
      ],
      "type": "VEC3"
    },
    {
      "bufferView": 2,
      "byteOffset": 6984240,
      "componentType": 5126,
      "count": 65532,
      "max": [
        1.0,
        0.9999709129333496,
        0.9999715089797974
      ],
      "min": [
        -1.0,
        -0.9999709129333496,
        -0.9999709129333496
      ],
      "type": "VEC3"
    },
    {
      "bufferView": 3,
      "byteOffset": 1063680,
      "componentType": 5126,
      "count": 65532,
      "max": [
        0.8482149243354797,
        0.9999998807907104,
        0.9999997019767761,
        -1.0
      ],
      "min": [
        -0.8453234434127808,
        -0.9999998807907104,
        -1.0,
        -1.0
      ],
      "type": "VEC4"
    },
    {
      "bufferView": 1,
      "byteOffset": 6900224,
      "componentType": 5126,
      "count": 65532,
      "max": [
        0.5263609886169434,
        0.9855719804763794
      ],
      "min": [
        0.020098000764846802,
        0.8454619646072388
      ],
      "type": "VEC2"
    },
    {
      "bufferView": 1,
      "byteOffset": 7424480,
      "componentType": 5126,
      "count": 65532,
      "max": [
        0.5263609886169434,
        0.9855719804763794
      ],
      "min": [
        0.020098000764846802,
        0.8454619646072388
      ],
      "type": "VEC2"
    },
    {
      "bufferView": 1,
      "byteOffset": 7948736,
      "componentType": 5126,
      "count": 65532,
      "max": [
        0.5263609886169434,
        0.9855719804763794
      ],
      "min": [
        0.020098000764846802,
        0.8454619646072388
      ],
      "type": "VEC2"
    },
    {
      "bufferView": 1,
      "byteOffset": 8472992,
      "componentType": 5126,
      "count": 65532,
      "max": [
        0.5263609886169434,
        0.9855719804763794
      ],
      "min": [
        0.020098000764846802,
        0.8454619646072388
      ],
      "type": "VEC2"
    },
    {
      "bufferView": 0,
      "byteOffset": 4440048,
      "componentType": 5125,
      "count": 162705,
      "type": "SCALAR"
    },
    {
      "bufferView": 2,
      "byteOffset": 7770624,
      "componentType": 5126,
      "count": 65532,
      "max": [
        0.9633060097694397,
        2.3192999362945557,
        0.004941999912261963
      ],
      "min": [
        -0.9753100275993347,
        -2.177639961242676,
        -0.7063440084457397
      ],
      "type": "VEC3"
    },
    {
      "bufferView": 2,
      "byteOffset": 8557008,
      "componentType": 5126,
      "count": 65532,
      "max": [
        1.0,
        0.9999709129333496,
        0.9999715089797974
      ],
      "min": [
        -1.0,
        -0.9999709129333496,
        -0.9999709129333496
      ],
      "type": "VEC3"
    },
    {
      "bufferView": 3,
      "byteOffset": 2112192,
      "componentType": 5126,
      "count": 65532,
      "max": [
        0.808183491230011,
        0.9999998807907104,
        0.9999997019767761,
        -1.0
      ],
      "min": [
        -0.7713760733604431,
        -0.9999998807907104,
        -1.0,
        -1.0
      ],
      "type": "VEC4"
    },
    {
      "bufferView": 1,
      "byteOffset": 8997248,
      "componentType": 5126,
      "count": 65532,
      "max": [
        0.5263609886169434,
        0.9855719804763794
      ],
      "min": [
        0.020098000764846802,
        0.8454619646072388
      ],
      "type": "VEC2"
    },
    {
      "bufferView": 1,
      "byteOffset": 9521504,
      "componentType": 5126,
      "count": 65532,
      "max": [
        0.5263609886169434,
        0.9855719804763794
      ],
      "min": [
        0.020098000764846802,
        0.8454619646072388
      ],
      "type": "VEC2"
    },
    {
      "bufferView": 1,
      "byteOffset": 10045760,
      "componentType": 5126,
      "count": 65532,
      "max": [
        0.5263609886169434,
        0.9855719804763794
      ],
      "min": [
        0.020098000764846802,
        0.8454619646072388
      ],
      "type": "VEC2"
    },
    {
      "bufferView": 1,
      "byteOffset": 10570016,
      "componentType": 5126,
      "count": 65532,
      "max": [
        0.5263609886169434,
        0.9855719804763794
      ],
      "min": [
        0.020098000764846802,
        0.8454619646072388
      ],
      "type": "VEC2"
    },
    {
      "bufferView": 0,
      "byteOffset": 5090868,
      "componentType": 5125,
      "count": 168609,
      "type": "SCALAR"
    },
    {
      "bufferView": 2,
      "byteOffset": 9343392,
      "componentType": 5126,
      "count": 12733,
      "max": [
        0.9627910256385803,
        -1.4663569927215576,
        0.004941999912261963
      ],
      "min": [
        -0.8656409978866577,
        -2.177639961242676,
        -0.7063440084457397
      ],
      "type": "VEC3"
    },
    {
      "bufferView": 2,
      "byteOffset": 9496188,
      "componentType": 5126,
      "count": 12733,
      "max": [
        1.0,
        0.9999709129333496,
        0.9999715089797974
      ],
      "min": [
        -1.0,
        -0.9999709129333496,
        -0.9999709129333496
      ],
      "type": "VEC3"
    },
    {
      "bufferView": 3,
      "byteOffset": 3160704,
      "componentType": 5126,
      "count": 12733,
      "max": [
        0.7802973985671997,
        0.9999986290931702,
        0.9999979734420776,
        -1.0
      ],
      "min": [
        -0.7713755369186401,
        -0.9999998807907104,
        -1.0,
        -1.0
      ],
      "type": "VEC4"
    },
    {
      "bufferView": 1,
      "byteOffset": 11094272,
      "componentType": 5126,
      "count": 12733,
      "max": [
        0.5263609886169434,
        0.9509699940681458
      ],
      "min": [
        0.021113000810146332,
        0.8454619646072388
      ],
      "type": "VEC2"
    },
    {
      "bufferView": 1,
      "byteOffset": 11196136,
      "componentType": 5126,
      "count": 12733,
      "max": [
        0.5263609886169434,
        0.9509699940681458
      ],
      "min": [
        0.021113000810146332,
        0.8454619646072388
      ],
      "type": "VEC2"
    },
    {
      "bufferView": 1,
      "byteOffset": 11298000,
      "componentType": 5126,
      "count": 12733,
      "max": [
        0.5263609886169434,
        0.9509699940681458
      ],
      "min": [
        0.021113000810146332,
        0.8454619646072388
      ],
      "type": "VEC2"
    },
    {
      "bufferView": 1,
      "byteOffset": 11399864,
      "componentType": 5126,
      "count": 12733,
      "max": [
        0.5263609886169434,
        0.9509699940681458
      ],
      "min": [
        0.021113000810146332,
        0.8454619646072388
      ],
      "type": "VEC2"
    },
    {
      "bufferView": 0,
      "byteOffset": 5765304,
      "componentType": 5125,
      "count": 29790,
      "type": "SCALAR"
    },
    {
      "bufferView": 2,
      "byteOffset": 9648984,
      "componentType": 5126,
      "count": 1052,
      "max": [
        1.002437949180603,
        1.614766001701355,
        -0.4879760146141052
      ],
      "min": [
        0.9361220002174377,
        -1.473950982093811,
        -0.8129090070724487
      ],
      "type": "VEC3"
    },
    {
      "bufferView": 2,
      "byteOffset": 9661608,
      "componentType": 5126,
      "count": 1052,
      "max": [
        0.9998427033424377,
        1.0,
        0.9999479651451111
      ],
      "min": [
        -0.3091088831424713,
        -0.9999450445175171,
        -0.999997615814209
      ],
      "type": "VEC3"
    },
    {
      "bufferView": 1,
      "byteOffset": 11501728,
      "componentType": 5126,
      "count": 1052,
      "max": [
        0.9201279878616333,
        0.9830870032310486
      ],
      "min": [
        0.6865140199661255,
        0.41261398792266846
      ],
      "type": "VEC2"
    },
    {
      "bufferView": 1,
      "byteOffset": 11510144,
      "componentType": 5126,
      "count": 1052,
      "max": [
        0.9201279878616333,
        0.9830870032310486
      ],
      "min": [
        0.6865140199661255,
        0.41261398792266846
      ],
      "type": "VEC2"
    },
    {
      "bufferView": 1,
      "byteOffset": 11518560,
      "componentType": 5126,
      "count": 1052,
      "max": [
        0.9201279878616333,
        0.9830870032310486
      ],
      "min": [
        0.6865140199661255,
        0.41261398792266846
      ],
      "type": "VEC2"
    },
    {
      "bufferView": 0,
      "byteOffset": 5884464,
      "componentType": 5125,
      "count": 4536,
      "type": "SCALAR"
    },
    {
      "bufferView": 2,
      "byteOffset": 9674232,
      "componentType": 5126,
      "count": 116,
      "max": [
        0.08429845422506332,
        2.95181941986084,
        -0.6661608815193176
      ],
      "min": [
        -6.538769525832322e-12,
        2.866199493408203,
        -0.8228560090065002
      ],
      "type": "VEC3"
    },
    {
      "bufferView": 2,
      "byteOffset": 9675624,
      "componentType": 5126,
      "count": 116,
      "max": [
        0.9973735809326172,
        1.0,
        0.27300283312797546
      ],
      "min": [
        -0.7788746953010559,
        -0.3743886649608612,
        -1.0
      ],
      "type": "VEC3"
    },
    {
      "bufferView": 1,
      "byteOffset": 11526976,
      "componentType": 5126,
      "count": 116,
      "max": [
        0.0,
        1.0
      ],
      "min": [
        0.0,
        1.0
      ],
      "type": "VEC2"
    },
    {
      "bufferView": 1,
      "byteOffset": 11527904,
      "componentType": 5126,
      "count": 116,
      "max": [
        0.0,
        1.0
      ],
      "min": [
        0.0,
        1.0
      ],
      "type": "VEC2"
    },
    {
      "bufferView": 1,
      "byteOffset": 11528832,
      "componentType": 5126,
      "count": 116,
      "max": [
        0.0,
        1.0
      ],
      "min": [
        0.0,
        1.0
      ],
      "type": "VEC2"
    },
    {
      "bufferView": 0,
      "byteOffset": 5902608,
      "componentType": 5125,
      "count": 564,
      "type": "SCALAR"
    },
    {
      "bufferView": 2,
      "byteOffset": 9677016,
      "componentType": 5126,
      "count": 1265,
      "max": [
        0.4879220128059387,
        2.959805488586426,
        -0.7282630205154419
      ],
      "min": [
        -7.599999662488699e-05,
        2.838381052017212,
        -1.0038130283355713
      ],
      "type": "VEC3"
    },
    {
      "bufferView": 2,
      "byteOffset": 9692196,
      "componentType": 5126,
      "count": 1265,
      "max": [
        0.9999170303344727,
        0.9944698810577393,
        0.9999561309814453
      ],
      "min": [
        -0.9926262497901917,
        -0.03070087917149067,
        -0.9857255816459656
      ],
      "type": "VEC3"
    },
    {
      "bufferView": 1,
      "byteOffset": 11529760,
      "componentType": 5126,
      "count": 1265,
      "max": [
        0.7234280109405518,
        0.8599870204925537
      ],
      "min": [
        0.6519539952278137,
        0.7393549680709839
      ],
      "type": "VEC2"
    },
    {
      "bufferView": 1,
      "byteOffset": 11539880,
      "componentType": 5126,
      "count": 1265,
      "max": [
        0.7234280109405518,
        0.8599870204925537
      ],
      "min": [
        0.6519539952278137,
        0.7393549680709839
      ],
      "type": "VEC2"
    },
    {
      "bufferView": 1,
      "byteOffset": 11550000,
      "componentType": 5126,
      "count": 1265,
      "max": [
        0.7234280109405518,
        0.8599870204925537
      ],
      "min": [
        0.6519539952278137,
        0.7393549680709839
      ],
      "type": "VEC2"
    },
    {
      "bufferView": 0,
      "byteOffset": 5904864,
      "componentType": 5125,
      "count": 4512,
      "type": "SCALAR"
    },
    {
      "bufferView": 2,
      "byteOffset": 9707376,
      "componentType": 5126,
      "count": 602,
      "max": [
        0.47082701325416565,
        2.960458278656006,
        -0.7378590106964111
      ],
      "min": [
        -7.599999662488699e-05,
        2.8860130310058594,
        -0.981564998626709
      ],
      "type": "VEC3"
    },
    {
      "bufferView": 2,
      "byteOffset": 9714600,
      "componentType": 5126,
      "count": 602,
      "max": [
        0.9959229826927185,
        0.9999059438705444,
        0.9847986698150635
      ],
      "min": [
        -0.9928854703903198,
        0.01470034010708332,
        -0.9820955395698547
      ],
      "type": "VEC3"
    },
    {
      "bufferView": 1,
      "byteOffset": 11560120,
      "componentType": 5126,
      "count": 602,
      "max": [
        0.7163730263710022,
        0.853318989276886
      ],
      "min": [
        0.6590909957885742,
        0.7458360195159912
      ],
      "type": "VEC2"
    },
    {
      "bufferView": 0,
      "byteOffset": 5922912,
      "componentType": 5125,
      "count": 2268,
      "type": "SCALAR"
    },
    {
      "bufferView": 2,
      "byteOffset": 9721824,
      "componentType": 5126,
      "count": 1496,
      "max": [
        0.9016469717025757,
        2.7931699752807617,
        -0.49302566051483154
      ],
      "min": [
        0.7742940187454224,
        2.6731350421905518,
        -0.5592796802520752
      ],
      "type": "VEC3"
    },
    {
      "bufferView": 2,
      "byteOffset": 9739776,
      "componentType": 5126,
      "count": 1496,
      "max": [
        0.9546098113059998,
        0.997027575969696,
        0.9472658038139343
      ],
      "min": [
        -0.9995269775390625,
        -0.0799984559416771,
        -0.5932058095932007
      ],
      "type": "VEC3"
    },
    {
      "bufferView": 1,
      "byteOffset": 11564936,
      "componentType": 5126,
      "count": 1496,
      "max": [
        0.3224320113658905,
        0.8762959837913513
      ],
      "min": [
        0.2950719892978668,
        0.8663809895515442
      ],
      "type": "VEC2"
    },
    {
      "bufferView": 1,
      "byteOffset": 11576904,
      "componentType": 5126,
      "count": 1496,
      "max": [
        0.3224320113658905,
        0.8762959837913513
      ],
      "min": [
        0.2950719892978668,
        0.8663809895515442
      ],
      "type": "VEC2"
    },
    {
      "bufferView": 1,
      "byteOffset": 11588872,
      "componentType": 5126,
      "count": 1496,
      "max": [
        0.3224320113658905,
        0.8762959837913513
      ],
      "min": [
        0.2950719892978668,
        0.8663809895515442
      ],
      "type": "VEC2"
    },
    {
      "bufferView": 0,
      "byteOffset": 5931984,
      "componentType": 5125,
      "count": 6156,
      "type": "SCALAR"
    },
    {
      "bufferView": 2,
      "byteOffset": 9757728,
      "componentType": 5126,
      "count": 148,
      "max": [
        1.0635265111923218,
        1.443224549293518,
        -0.22947746515274048
      ],
      "min": [
        0.8220890760421753,
        -1.376871109008789,
        -0.38231363892555237
      ],
      "type": "VEC3"
    },
    {
      "bufferView": 2,
      "byteOffset": 9759504,
      "componentType": 5126,
      "count": 148,
      "max": [
        0.9949408769607544,
        0.8868551850318909,
        0.999020516872406
      ],
      "min": [
        -0.9949453473091125,
        -0.901378333568573,
        -0.9990198016166687
      ],
      "type": "VEC3"
    },
    {
      "bufferView": 1,
      "byteOffset": 11600840,
      "componentType": 5126,
      "count": 148,
      "max": [
        0.0,
        1.0
      ],
      "min": [
        0.0,
        1.0
      ],
      "type": "VEC2"
    },
    {
      "bufferView": 1,
      "byteOffset": 11602024,
      "componentType": 5126,
      "count": 148,
      "max": [
        0.0,
        1.0
      ],
      "min": [
        0.0,
        1.0
      ],
      "type": "VEC2"
    },
    {
      "bufferView": 1,
      "byteOffset": 11603208,
      "componentType": 5126,
      "count": 148,
      "max": [
        0.0,
        1.0
      ],
      "min": [
        0.0,
        1.0
      ],
      "type": "VEC2"
    },
    {
      "bufferView": 0,
      "byteOffset": 5956608,
      "componentType": 5125,
      "count": 876,
      "type": "SCALAR"
    }
  ],
  "asset": {
    "extras": {
      "author": "jonathantiritilli (https://sketchfab.com/jonathantiritilli)",
      "license": "SKETCHFAB Standard (https://sketchfab.com/licenses)",
      "source": "https://sketchfab.com/3d-models/gltf-3df5f8dc2f4f42cb8b6a43993a22112f",
      "title": "Gltf"
    },
    "generator": "Sketchfab-16.62.0",
    "version": "2.0"
  },
  "bufferViews": [
    {
      "buffer": 0,
      "byteLength": 5960112,
      "name": "floatBufferViews",
      "target": 34963
    },
    {
      "buffer": 0,
      "byteLength": 11604392,
      "byteOffset": 5960112,
      "byteStride": 8,
      "name": "floatBufferViews",
      "target": 34962
    },
    {
      "buffer": 0,
      "byteLength": 9761280,
      "byteOffset": 17564504,
      "byteStride": 12,
      "name": "floatBufferViews",
      "target": 34962
    },
    {
      "buffer": 0,
      "byteLength": 3364432,
      "byteOffset": 27325784,
      "byteStride": 16,
      "name": "floatBufferViews",
      "target": 34962
    }
  ],
  "buffers": [
    {
      "byteLength": 30690216,
      "uri": "scene.bin"
    }
  ],
  "images": [
    {
      "uri": "textures/ftc_black_met_baseColor.png"
    },
    {
      "uri": "textures/ftc_black_met_metallicRoughness.png"
    },
    {
      "uri": "textures/ftc_white_met_baseColor.png"
    },
    {
      "uri": "textures/ftc_white_met_metallicRoughness.png"
    },
    {
      "uri": "textures/ftc_white_met_normal.png"
    },
    {
      "uri": "textures/ftc_steel_met_baseColor.png"
    },
    {
      "uri": "textures/ftc_steel_met_metallicRoughness.png"
    },
    {
      "uri": "textures/ftc_rubber_met_baseColor.png"
    },
    {
      "uri": "textures/ftc_rubber_met_metallicRoughness.png"
    },
    {
      "uri": "textures/ftc_rubber_met_normal.png"
    },
    {
      "uri": "textures/ftc_glass_met_baseColor.png"
    },
    {
      "uri": "textures/ftc_glass_met_metallicRoughness.png"
    },
    {
      "uri": "textures/ftc_glass_met_emissive.png"
    }
  ],
  "materials": [
    {
      "doubleSided": true,
      "name": "ftc_black_met",
      "pbrMetallicRoughness": {
        "baseColorTexture": {
          "index": 0
        },
        "metallicRoughnessTexture": {
          "index": 1,
          "texCoord": 1
        }
      }
    },
    {
      "doubleSided": true,
      "name": "ftc_white_met",
      "normalTexture": {
        "index": 4
      },
      "pbrMetallicRoughness": {
        "baseColorTexture": {
          "index": 2
        },
        "metallicRoughnessTexture": {
          "index": 3
        }
      }
    },
    {
      "doubleSided": true,
      "name": "ftc_steel_met",
      "pbrMetallicRoughness": {
        "baseColorTexture": {
          "index": 5
        },
        "metallicRoughnessTexture": {
          "index": 6,
          "texCoord": 1
        }
      }
    },
    {
      "doubleSided": true,
      "name": "ftc_rubber_met",
      "normalTexture": {
        "index": 9,
        "texCoord": 2
      },
      "pbrMetallicRoughness": {
        "baseColorTexture": {
          "index": 7
        },
        "metallicRoughnessTexture": {
          "index": 8,
          "texCoord": 1
        }
      }
    },
    {
      "emissiveFactor": [
        1.0,
        1.0,
        1.0
      ],
      "emissiveTexture": {
        "index": 12,
        "texCoord": 2
      },
      "name": "ftc_glass_met",
      "pbrMetallicRoughness": {
        "baseColorTexture": {
          "index": 10
        },
        "metallicRoughnessTexture": {
          "index": 11,
          "texCoord": 1
        }
      }
    },
    {
      "doubleSided": true,
      "name": "blue",
      "pbrMetallicRoughness": {
        "baseColorFactor": [
          0.0,
          0.0978044,
          0.800521,
          1.0
        ],
        "roughnessFactor": 0.387097
      }
    }
  ],
  "meshes": [
    {
      "name": "Object_0",
      "primitives": [
        {
          "attributes": {
            "NORMAL": 1,
            "POSITION": 0,
            "TEXCOORD_0": 2,
            "TEXCOORD_1": 3,
            "TEXCOORD_2": 4
          },
          "indices": 5,
          "material": 0,
          "mode": 4
        }
      ]
    },
    {
      "name": "Object_1",
      "primitives": [
        {
          "attributes": {
            "NORMAL": 7,
            "POSITION": 6,
            "TEXCOORD_0": 8,
            "TEXCOORD_1": 9,
            "TEXCOORD_2": 10
          },
          "indices": 11,
          "material": 0,
          "mode": 4
        }
      ]
    },
    {
      "name": "Object_2",
      "primitives": [
        {
          "attributes": {
            "NORMAL": 13,
            "POSITION": 12,
            "TANGENT": 14,
            "TEXCOORD_0": 15,
            "TEXCOORD_1": 16,
            "TEXCOORD_2": 17,
            "TEXCOORD_3": 18
          },
          "indices": 19,
          "material": 1,
          "mode": 4
        }
      ]
    },
    {
      "name": "Object_3",
      "primitives": [
        {
          "attributes": {
            "NORMAL": 21,
            "POSITION": 20,
            "TEXCOORD_0": 22,
            "TEXCOORD_1": 23,
            "TEXCOORD_2": 24
          },
          "indices": 25,
          "material": 2,
          "mode": 4
        }
      ]
    },
    {
      "name": "Object_4",
      "primitives": [
        {
          "attributes": {
            "NORMAL": 27,
            "POSITION": 26,
            "TEXCOORD_0": 28,
            "TEXCOORD_1": 29,
            "TEXCOORD_2": 30
          },
          "indices": 31,
          "material": 2,
          "mode": 4
        }
      ]
    },
    {
      "name": "Object_5",
      "primitives": [
        {
          "attributes": {
            "NORMAL": 33,
            "POSITION": 32,
            "TANGENT": 34,
            "TEXCOORD_0": 35,
            "TEXCOORD_1": 36,
            "TEXCOORD_2": 37,
            "TEXCOORD_3": 38
          },
          "indices": 39,
          "material": 3,
          "mode": 4
        }
      ]
    },
    {
      "name": "Object_6",
      "primitives": [
        {
          "attributes": {
            "NORMAL": 41,
            "POSITION": 40,
            "TEXCOORD_0": 42,
            "TEXCOORD_1": 43,
            "TEXCOORD_2": 44,
            "TEXCOORD_3": 45
          },
          "indices": 46,
          "material": 4,
          "mode": 4
        }
      ]
    },
    {
      "name": "Object_7",
      "primitives": [
        {
          "attributes": {
            "NORMAL": 48,
            "POSITION": 47,
            "TANGENT": 49,
            "TEXCOORD_0": 50,
            "TEXCOORD_1": 51,
            "TEXCOORD_2": 52,
            "TEXCOORD_3": 53
          },
          "indices": 54,
          "material": 3,
          "mode": 4
        }
      ]
    },
    {
      "name": "Object_8",
      "primitives": [
        {
          "attributes": {
            "NORMAL": 56,
            "POSITION": 55,
            "TANGENT": 57,
            "TEXCOORD_0": 58,
            "TEXCOORD_1": 59,
            "TEXCOORD_2": 60,
            "TEXCOORD_3": 61
          },
          "indices": 62,
          "material": 3,
          "mode": 4
        }
      ]
    },
    {
      "name": "Object_9",
      "primitives": [
        {
          "attributes": {
            "NORMAL": 64,
            "POSITION": 63,
            "TANGENT": 65,
            "TEXCOORD_0": 66,
            "TEXCOORD_1": 67,
            "TEXCOORD_2": 68,
            "TEXCOORD_3": 69
          },
          "indices": 70,
          "material": 3,
          "mode": 4
        }
      ]
    },
    {
      "name": "Object_10",
      "primitives": [
        {
          "attributes": {
            "NORMAL": 72,
            "POSITION": 71,
            "TEXCOORD_0": 73,
            "TEXCOORD_1": 74,
            "TEXCOORD_2": 75
          },
          "indices": 76,
          "material": 0,
          "mode": 4
        }
      ]
    },
    {
      "name": "Object_11",
      "primitives": [
        {
          "attributes": {
            "NORMAL": 78,
            "POSITION": 77,
            "TEXCOORD_0": 79,
            "TEXCOORD_1": 80,
            "TEXCOORD_2": 81
          },
          "indices": 82,
          "material": 0,
          "mode": 4
        }
      ]
    },
    {
      "name": "Object_12",
      "primitives": [
        {
          "attributes": {
            "NORMAL": 84,
            "POSITION": 83,
            "TEXCOORD_0": 85,
            "TEXCOORD_1": 86,
            "TEXCOORD_2": 87
          },
          "indices": 88,
          "material": 0,
          "mode": 4
        }
      ]
    },
    {
      "name": "Object_13",
      "primitives": [
        {
          "attributes": {
            "NORMAL": 90,
            "POSITION": 89,
            "TEXCOORD_0": 91
          },
          "indices": 92,
          "material": 5,
          "mode": 4
        }
      ]
    },
    {
      "name": "Object_14",
      "primitives": [
        {
          "attributes": {
            "NORMAL": 94,
            "POSITION": 93,
            "TEXCOORD_0": 95,
            "TEXCOORD_1": 96,
            "TEXCOORD_2": 97
          },
          "indices": 98,
          "material": 2,
          "mode": 4
        }
      ]
    },
    {
      "name": "Object_15",
      "primitives": [
        {
          "attributes": {
            "NORMAL": 100,
            "POSITION": 99,
            "TEXCOORD_0": 101,
            "TEXCOORD_1": 102,
            "TEXCOORD_2": 103
          },
          "indices": 104,
          "material": 0,
          "mode": 4
        }
      ]
    }
  ],
  "nodes": [
    {
      "children": [
        1
      ],
      "matrix": [
        1.0,
        0.0,
        0.0,
        0.0,
        0.0,
        2.220446049250313e-16,
        -1.0,
        0.0,
        0.0,
        1.0,
        2.220446049250313e-16,
        0.0,
        0.0,
        0.0,
        0.0,
        1.0
      ],
      "name": "Sketchfab_model"
    },
    {
      "children": [
        2
      ],
      "name": "root"
    },
    {
      "children": [
        3,
        11,
        15,
        17,
        19,
        22,
        24
      ],
      "matrix": [
        1.0,
        0.0,
        0.0,
        0.0,
        0.0,
        2.220446049250313e-16,
        1.0,
        0.0,
        0.0,
        -1.0,
        2.220446049250313e-16,
        0.0,
        0.0,
        0.0,
        0.0,
        1.0
      ],
      "name": "GLTF_SceneRootNode"
    },
    {
      "children": [
        4,
        5,
        6,
        7,
        8,
        9,
        10
      ],
      "matrix": [
        1.0,
        0.0,
        0.0,
        0.0,
        0.0,
        -3.371747936409264e-07,
        0.999999999999943,
        0.0,
        0.0,
        -0.999999999999943,
        -3.371747936409264e-07,
        0.0,
        0.0,
        0.0,
        0.0,
        1.0
      ],
      "name": "ftc_black_0"
    },
    {
      "mesh": 0,
      "name": "Object_4"
    },
    {
      "mesh": 1,
      "name": "Object_5"
    },
    {
      "mesh": 2,
      "name": "Object_6"
    },
    {
      "mesh": 3,
      "name": "Object_7"
    },
    {
      "mesh": 4,
      "name": "Object_8"
    },
    {
      "mesh": 5,
      "name": "Object_9"
    },
    {
      "mesh": 6,
      "name": "Object_10"
    },
    {
      "children": [
        12,
        13,
        14
      ],
      "matrix": [
        1.0,
        0.0,
        0.0,
        0.0,
        0.0,
        -3.371747936409264e-07,
        0.999999999999943,
        0.0,
        0.0,
        -0.999999999999943,
        -3.371747936409264e-07,
        0.0,
        0.0,
        0.0,
        0.0,
        1.0
      ],
      "name": "ftc_rubber.001_1"
    },
    {
      "mesh": 7,
      "name": "Object_12"
    },
    {
      "mesh": 8,
      "name": "Object_13"
    },
    {
      "mesh": 9,
      "name": "Object_14"
    },
    {
      "children": [
        16
      ],
      "matrix": [
        1.0,
        0.0,
        0.0,
        0.0,
        0.0,
        -3.371747936409264e-07,
        0.999999999999943,
        0.0,
        0.0,
        -0.999999999999943,
        -3.371747936409264e-07,
        0.0,
        0.0,
        0.0,
        0.0,
        1.0
      ],
      "name": "ftc_black.001_2"
    },
    {
      "mesh": 10,
      "name": "Object_16"
    },
    {
      "children": [
        18
      ],
      "matrix": [
        1.0,
        0.0,
        0.0,
        0.0,
        0.0,
        -3.371747936409264e-07,
        0.999999999999943,
        0.0,
        0.0,
        -0.999999999999943,
        -3.371747936409264e-07,
        0.0,
        0.0,
        0.0,
        0.0,
        1.0
      ],
      "name": "ftc_black.003_3"
    },
    {
      "mesh": 11,
      "name": "Object_18"
    },
    {
      "children": [
        20,
        21
      ],
      "matrix": [
        1.0,
        0.0,
        0.0,
        0.0,
        0.0,
        -3.371747936409264e-07,
        0.999999999999943,
        0.0,
        0.0,
        -0.999999999999943,
        -3.371747936409264e-07,
        0.0,
        0.0,
        0.0,
        0.0,
        1.0
      ],
      "name": "ftc_black.004_4"
    },
    {
      "mesh": 12,
      "name": "Object_20"
    },
    {
      "mesh": 13,
      "name": "Object_21"
    },
    {
      "children": [
        23
      ],
      "matrix": [
        1.0,
        0.0,
        0.0,
        0.0,
        0.0,
        -3.371747936409264e-07,
        0.999999999999943,
        0.0,
        0.0,
        -0.999999999999943,
        -3.371747936409264e-07,
        0.0,
        0.0,
        0.0,
        0.0,
        1.0
      ],
      "name": "ftc_black.002_5"
    },
    {
      "mesh": 14,
      "name": "Object_23"
    },
    {
      "children": [
        25
      ],
      "matrix": [
        1.0,
        0.0,
        0.0,
        0.0,
        0.0,
        -3.371747936409264e-07,
        0.999999999999943,
        0.0,
        0.0,
        -0.999999999999943,
        -3.371747936409264e-07,
        0.0,
        0.0,
        0.0,
        0.0,
        1.0
      ],
      "name": "ftc_black.005_6"
    },
    {
      "mesh": 15,
      "name": "Object_25"
    }
  ],
  "samplers": [
    {
      "magFilter": 9729,
      "minFilter": 9987,
      "wrapS": 10497,
      "wrapT": 10497
    }
  ],
  "scene": 0,
  "scenes": [
    {
      "name": "Sketchfab_Scene",
      "nodes": [
        0
      ]
    }
  ],
  "textures": [
    {
      "sampler": 0,
      "source": 0
    },
    {
      "sampler": 0,
      "source": 1
    },
    {
      "sampler": 0,
      "source": 2
    },
    {
      "sampler": 0,
      "source": 3
    },
    {
      "sampler": 0,
      "source": 4
    },
    {
      "sampler": 0,
      "source": 5
    },
    {
      "sampler": 0,
      "source": 6
    },
    {
      "sampler": 0,
      "source": 7
    },
    {
      "sampler": 0,
      "source": 8
    },
    {
      "sampler": 0,
      "source": 9
    },
    {
      "sampler": 0,
      "source": 10
    },
    {
      "sampler": 0,
      "source": 11
    },
    {
      "sampler": 0,
      "source": 12
    }
  ]
}
